{
    "asset" : {
        "generator" : "Khronos glTF Blender I/O v3.4.49",
        "version" : "2.0"
    },
    "extensionsUsed" : [
        "KHR_materials_specular",
        "KHR_materials_ior"
    ],
    "scene" : 0,
    "scenes" : [
        {
            "name" : "Scene",
            "nodes" : [
                0,
                28
            ]
        }
    ],
    "nodes" : [
        {
            "name" : "Armature"
        },
        {
            "mesh" : 0,
            "name" : "vr_glove_left_slim"
        },
        {
            "name" : "Thumb_Tip_L",
            "rotation" : [
                -9.010545909404755e-08,
                -3.026798367500305e-08,
                -6.239861249923706e-08,
                1
            ],
            "scale" : [
                1.0000001192092896,
                1,
                1
            ],
            "translation" : [
                -6.955815479159355e-09,
                9.89530235528946e-09,
                -0.03046402335166931
            ]
        },
        {
            "children" : [
                2
            ],
            "name" : "Thumb_Distal_L",
            "rotation" : [
                -0.1533350795507431,
                -0.0014028225559741259,
                -9.753938502399251e-05,
                0.9881733059883118
            ],
            "scale" : [
                1,
                1.0000001192092896,
                1
            ],
            "translation" : [
                -5.180481821298599e-09,
                1.8058926798403263e-08,
                -0.032516807317733765
            ]
        },
        {
            "children" : [
                3
            ],
            "name" : "Thumb_Proximal_L",
            "rotation" : [
                -0.24637754261493683,
                0.0013719206908717752,
                -6.090017268434167e-05,
                0.9691729545593262
            ],
            "translation" : [
                -6.1409082263708115e-09,
                -2.0954757928848267e-09,
                -0.04040611907839775
            ]
        },
        {
            "children" : [
                4
            ],
            "name" : "Thumb_Metacarpal_L",
            "rotation" : [
                0.11328728497028351,
                -0.34512877464294434,
                -0.6099363565444946,
                0.7042938470840454
            ],
            "scale" : [
                1.0000001192092896,
                1.0000001192092896,
                1
            ],
            "translation" : [
                0.029178034514188766,
                -0.017913810908794403,
                -0.02529832534492016
            ]
        },
        {
            "name" : "Index_Tip_L",
            "rotation" : [
                -2.2468154270427476e-07,
                2.2538004884609109e-07,
                -5.029141547652216e-08,
                1
            ],
            "scale" : [
                1,
                1.0000001192092896,
                1.0000001192092896
            ],
            "translation" : [
                -1.123407855629921e-08,
                8.847564458847046e-09,
                -0.022821547463536263
            ]
        },
        {
            "children" : [
                6
            ],
            "name" : "Index_Distal_L",
            "rotation" : [
                -0.07645753026008606,
                0.001165961381047964,
                -3.1280647817766294e-05,
                0.997072160243988
            ],
            "translation" : [
                -3.3178366720676422e-09,
                1.548323780298233e-08,
                -0.02827518805861473
            ]
        },
        {
            "children" : [
                7
            ],
            "name" : "Index_Intermediate_L",
            "rotation" : [
                -0.18476223945617676,
                -0.005041560158133507,
                8.593245729571208e-05,
                0.9827703237533569
            ],
            "scale" : [
                1,
                1,
                0.9999998807907104
            ],
            "translation" : [
                -1.3031240087002516e-08,
                2.444721758365631e-09,
                -0.04328657686710358
            ]
        },
        {
            "children" : [
                8
            ],
            "name" : "Index_Proximal_L",
            "rotation" : [
                -0.24140378832817078,
                0.052886962890625,
                -0.0016233795322477818,
                0.9689812064170837
            ],
            "scale" : [
                1,
                1,
                0.9999998807907104
            ],
            "translation" : [
                -6.752088665962219e-09,
                1.7578713595867157e-08,
                -0.07379753142595291
            ]
        },
        {
            "children" : [
                9
            ],
            "name" : "Index_Metacarpal_L",
            "rotation" : [
                0.09539870917797089,
                -0.1039201095700264,
                -0.08422338962554932,
                0.9864107370376587
            ],
            "translation" : [
                0.021073227748274803,
                -0.0015572495758533478,
                -0.014786984771490097
            ]
        },
        {
            "name" : "Middle_Tip_L",
            "rotation" : [
                -2.4674227461218834e-07,
                4.5867643905239674e-08,
                -3.655441105365753e-08,
                1
            ],
            "scale" : [
                0.9999999403953552,
                1,
                0.9999998807907104
            ],
            "translation" : [
                -8.731149137020111e-09,
                -3.14321368932724e-09,
                -0.025892293080687523
            ]
        },
        {
            "children" : [
                11
            ],
            "name" : "Middle_Distal_L",
            "rotation" : [
                -0.141276553273201,
                -0.004125416278839111,
                0.00010743946040747687,
                0.989961564540863
            ],
            "scale" : [
                0.9999999403953552,
                1.0000001192092896,
                1
            ],
            "translation" : [
                -1.622538547962904e-09,
                -1.3969838619232178e-08,
                -0.03326592221856117
            ]
        },
        {
            "children" : [
                12
            ],
            "name" : "Middle_Intermediate_L",
            "rotation" : [
                -0.15739549696445465,
                0.003688181983307004,
                -9.324571146862581e-05,
                0.9875288605690002
            ],
            "scale" : [
                1,
                1.0000001192092896,
                1
            ],
            "translation" : [
                -2.735760062932968e-09,
                -5.3551048040390015e-09,
                -0.04310852289199829
            ]
        },
        {
            "children" : [
                13
            ],
            "name" : "Middle_Proximal_L",
            "rotation" : [
                -0.2291625738143921,
                0.00018552564142737538,
                -1.7519246497954555e-08,
                0.973388135433197
            ],
            "scale" : [
                1,
                0.9999998807907104,
                0.9999999403953552
            ],
            "translation" : [
                -5.704350769519806e-09,
                2.6659108698368073e-08,
                -0.07088553160429001
            ]
        },
        {
            "children" : [
                14
            ],
            "name" : "Middle_Metacarpal_L",
            "rotation" : [
                0.10122402757406235,
                -0.012461918406188488,
                -0.04078833386301994,
                0.9939491748809814
            ],
            "translation" : [
                0.007119543384760618,
                0.002177298069000244,
                -0.016318850219249725
            ]
        },
        {
            "name" : "Ring_Tip_L",
            "rotation" : [
                -7.24103230709261e-08,
                6.612390279769897e-08,
                1.4854595065116882e-07,
                1
            ],
            "scale" : [
                1,
                1.0000001192092896,
                1.0000001192092896
            ],
            "translation" : [
                -2.8958311304450035e-09,
                8.498318493366241e-09,
                -0.022430146113038063
            ]
        },
        {
            "children" : [
                16
            ],
            "name" : "Ring_Distal_L",
            "rotation" : [
                -0.13535472750663757,
                0.004263092298060656,
                -0.0001986407150980085,
                0.9907880425453186
            ],
            "scale" : [
                1,
                1.0000001192092896,
                1
            ],
            "translation" : [
                -6.51925802230835e-09,
                -1.5366822481155396e-08,
                -0.02848876640200615
            ]
        },
        {
            "children" : [
                17
            ],
            "name" : "Ring_Intermediate_L",
            "rotation" : [
                -0.13382987678050995,
                -0.0025313955266028643,
                7.315242692129686e-05,
                0.9910010695457458
            ],
            "scale" : [
                1.0000001192092896,
                1.0000001192092896,
                0.9999999403953552
            ],
            "translation" : [
                -3.725290298461914e-09,
                9.313225746154785e-09,
                -0.04033123329281807
            ]
        },
        {
            "children" : [
                18
            ],
            "name" : "Ring_Proximal_L",
            "rotation" : [
                -0.22036926448345184,
                0.040956903249025345,
                0.000901351566426456,
                0.9745558500289917
            ],
            "translation" : [
                -1.0477378964424133e-09,
                1.0826624929904938e-08,
                -0.06597500294446945
            ]
        },
        {
            "children" : [
                19
            ],
            "name" : "Ring_Metacarpal_L",
            "rotation" : [
                0.07069987058639526,
                0.049555640667676926,
                0.016104333102703094,
                0.9961357712745667
            ],
            "translation" : [
                -0.0065451269038021564,
                0.0005134157836437225,
                -0.016347665339708328
            ]
        },
        {
            "name" : "Little_Tip_L",
            "rotation" : [
                1.578591763973236e-07,
                1.0244548320770264e-08,
                5.21540641784668e-08,
                1
            ],
            "translation" : [
                -2.3283064365386963e-10,
                6.51925802230835e-09,
                -0.018017930909991264
            ]
        },
        {
            "children" : [
                21
            ],
            "name" : "Little_Distal_L",
            "rotation" : [
                -0.10858117789030075,
                -0.012702549807727337,
                0.000538400374352932,
                0.9940062761306763
            ],
            "translation" : [
                1.4435499906539917e-08,
                1.6763806343078613e-08,
                -0.017978547140955925
            ]
        },
        {
            "children" : [
                22
            ],
            "name" : "Little_Intermediate_L",
            "rotation" : [
                -0.13252325356006622,
                0.011456319130957127,
                -0.00038248905912041664,
                0.9911136627197266
            ],
            "scale" : [
                1,
                0.9999999403953552,
                0.9999999403953552
            ],
            "translation" : [
                4.6566128730773926e-09,
                -1.862645149230957e-09,
                -0.029874315485358238
            ]
        },
        {
            "children" : [
                23
            ],
            "name" : "Little_Proximal_L",
            "rotation" : [
                -0.11030752956867218,
                -0.028164243325591087,
                -0.003942269366234541,
                0.9934905171394348
            ],
            "scale" : [
                0.9999999403953552,
                0.9999999403953552,
                1
            ],
            "translation" : [
                0,
                -5.122274160385132e-09,
                -0.06285567581653595
            ]
        },
        {
            "children" : [
                24
            ],
            "name" : "Little_Metacarpal_L",
            "rotation" : [
                0.01966092921793461,
                0.14891953766345978,
                0.11935029923915863,
                0.9814234375953674
            ],
            "scale" : [
                1,
                0.9999999403953552,
                1
            ],
            "translation" : [
                -0.01898137480020523,
                -0.0024781636893749237,
                -0.015213653445243835
            ]
        },
        {
            "name" : "Palm_L",
            "rotation" : [
                0.10122404992580414,
                -0.012461862526834011,
                -0.04078832268714905,
                0.9939490556716919
            ],
            "translation" : [
                0.008290235884487629,
                0.00927317887544632,
                -0.05102429538965225
            ]
        },
        {
            "children" : [
                5,
                10,
                15,
                20,
                25,
                26
            ],
            "name" : "Wrist_L",
            "rotation" : [
                9.974802139822714e-08,
                -9.974802139822714e-08,
                0.7071068286895752,
                0.7071068286895752
            ],
            "scale" : [
                1,
                0.9999999403953552,
                1
            ],
            "translation" : [
                -0.037693656980991364,
                -0.03406442329287529,
                0.16060179471969604
            ]
        },
        {
            "children" : [
                1,
                27
            ],
            "name" : "Armature.001"
        }
    ],
    "materials" : [
        {
            "doubleSided" : true,
            "extensions" : {
                "KHR_materials_specular" : {
                    "specularColorFactor" : [
                        2.371357614441398,
                        2.371357614441398,
                        2.371357614441398
                    ]
                },
                "KHR_materials_ior" : {
                    "ior" : 1.4500000476837158
                }
            },
            "name" : "glove",
            "normalTexture" : {
                "index" : 0
            },
            "pbrMetallicRoughness" : {
                "baseColorTexture" : {
                    "index" : 1
                },
                "metallicFactor" : 0.5,
                "roughnessFactor" : 0.7487671971321106
            }
        }
    ],
    "meshes" : [
        {
            "name" : "Mesh.001",
            "primitives" : [
                {
                    "attributes" : {
                        "POSITION" : 0,
                        "TEXCOORD_0" : 1,
                        "NORMAL" : 2
                    },
                    "indices" : 3,
                    "material" : 0
                }
            ]
        }
    ],
    "textures" : [
        {
            "sampler" : 0,
            "source" : 0
        },
        {
            "sampler" : 0,
            "source" : 1
        }
    ],
    "images" : [
        {
            "mimeType" : "image/png",
            "name" : "file2",
            "uri" : "file2.png"
        },
        {
            "mimeType" : "image/jpeg",
            "name" : "vr_glove_color",
            "uri" : "vr_glove_color.jpg"
        }
    ],
    "accessors" : [
        {
            "bufferView" : 0,
            "componentType" : 5126,
            "count" : 3028,
            "max" : [
                0.01777542755007744,
                0.0328277163207531,
                0.18766960501670837
            ],
            "min" : [
                -0.06012188643217087,
                -0.08710207045078278,
                -0.015957757830619812
            ],
            "type" : "VEC3"
        },
        {
            "bufferView" : 1,
            "componentType" : 5126,
            "count" : 3028,
            "type" : "VEC2"
        },
        {
            "bufferView" : 2,
            "componentType" : 5126,
            "count" : 3028,
            "type" : "VEC3"
        },
        {
            "bufferView" : 3,
            "componentType" : 5123,
            "count" : 14697,
            "type" : "SCALAR"
        }
    ],
    "bufferViews" : [
        {
            "buffer" : 0,
            "byteLength" : 36336,
            "byteOffset" : 0,
            "target" : 34962
        },
        {
            "buffer" : 0,
            "byteLength" : 24224,
            "byteOffset" : 36336,
            "target" : 34962
        },
        {
            "buffer" : 0,
            "byteLength" : 36336,
            "byteOffset" : 60560,
            "target" : 34962
        },
        {
            "buffer" : 0,
            "byteLength" : 29394,
            "byteOffset" : 96896,
            "target" : 34963
        }
    ],
    "samplers" : [
        {
            "magFilter" : 9729,
            "minFilter" : 9987
        }
    ],
    "buffers" : [
        {
            "byteLength" : 126292,
            "uri" : "openxr_glove_left.bin"
        }
    ]
}
