<?xml version="1.0" encoding="UTF-8" standalone="no"?>
<!DOCTYPE svg PUBLIC "-//W3C//DTD SVG 1.1//EN" "http://www.w3.org/Graphics/SVG/1.1/DTD/svg11.dtd">
<svg width="100%" height="100%" viewBox="0 0 24 24" version="1.1" xmlns="http://www.w3.org/2000/svg" xmlns:xlink="http://www.w3.org/1999/xlink" xml:space="preserve" xmlns:serif="http://www.serif.com/" style="fill-rule:evenodd;clip-rule:evenodd;stroke-linecap:round;stroke-linejoin:round;stroke-miterlimit:1.5;">
    <g transform="matrix(1,0,0,1,-0.152478,0.365946)">
        <path d="M15.678,4.522L18.335,4.522C19.953,4.522 21.2,4.883 22.078,5.604C22.956,6.325 23.395,7.344 23.395,8.66C23.395,9.595 23.193,10.374 22.788,10.998C22.384,11.621 21.771,12.118 20.95,12.488L23.912,18.084L23.912,18.216L20.884,18.216L18.316,13.203L16.068,13.203L16.068,18.216L15.678,18.216L15.678,4.522ZM16.068,10.918L18.344,10.918C19.053,10.918 19.602,10.737 19.99,10.377C20.379,10.016 20.573,9.519 20.573,8.886C20.573,8.24 20.39,7.733 20.023,7.363C19.656,6.993 19.094,6.808 18.335,6.808L16.068,6.808L16.068,10.918Z" style="fill-rule:nonzero;"/>
    </g>
    <g transform="matrix(0.603242,0,0,1.08906,4.12034,-1.21487)">
        <path d="M18.907,5.583L14.234,5.583L14.234,18.157L18.907,18.157L18.907,21.56L6.374,21.56L6.374,16.934L7.613,18.185L13.055,18.185L6.374,11.94L6.374,11.751L12.883,5.611L7.504,5.611L6.374,6.763L6.374,2.684L18.907,2.684L18.907,5.583Z" style="fill:rgb(235,235,235);stroke:black;stroke-width:0.05px;"/>
    </g>
    <g transform="matrix(1,0,0,1,-0.152478,0.365946)">
        <path d="M8.118,16.78L6.28,13.433L3.646,18.229L0.364,18.229L4.455,11.326L0.468,4.536L3.712,4.536L6.28,9.257L8.118,5.878L8.118,11.304L8.104,11.326L8.118,11.349L8.118,16.78Z" style="fill-rule:nonzero;"/>
    </g>
</svg>
