{
    "asset" : {
        "generator" : "Khronos glTF Blender I/O v3.4.49",
        "version" : "2.0"
    },
    "extensionsUsed" : [
        "KHR_materials_specular",
        "KHR_materials_ior"
    ],
    "scene" : 0,
    "scenes" : [
        {
            "name" : "Scene",
            "nodes" : [
                27
            ]
        }
    ],
    "nodes" : [
        {
            "mesh" : 0,
            "name" : "vr_glove_right_slim"
        },
        {
            "name" : "Thumb_Tip_R",
            "rotation" : [
                1.5064142644405365e-07,
                -1.5468685887753963e-08,
                2.6309862732887268e-08,
                1
            ],
            "translation" : [
                -6.893242243677378e-08,
                1.7945421859622002e-07,
                -0.030463913455605507
            ]
        },
        {
            "children" : [
                1
            ],
            "name" : "Thumb_Distal_R",
            "rotation" : [
                -0.1533350944519043,
                0.0014029194135218859,
                9.765192226041108e-05,
                0.9881733059883118
            ],
            "scale" : [
                1,
                0.9999999403953552,
                1
            ],
            "translation" : [
                1.4217221178114414e-08,
                -4.842877388000488e-08,
                -0.03251679241657257
            ]
        },
        {
            "children" : [
                2
            ],
            "name" : "Thumb_Proximal_R",
            "rotation" : [
                -0.24637752771377563,
                -0.0013718827394768596,
                6.0983249568380415e-05,
                0.9691729545593262
            ],
            "scale" : [
                1,
                1.0000001192092896,
                1
            ],
            "translation" : [
                -5.135007086209953e-08,
                -4.540197551250458e-08,
                -0.04040595144033432
            ]
        },
        {
            "children" : [
                3
            ],
            "name" : "Thumb_Metacarpal_R",
            "rotation" : [
                0.11328739672899246,
                0.3451286256313324,
                0.6099362969398499,
                0.704293966293335
            ],
            "scale" : [
                0.9999998807907104,
                0.9999998211860657,
                0.9999998807907104
            ],
            "translation" : [
                -0.02917817234992981,
                -0.01791379041969776,
                -0.025298383086919785
            ]
        },
        {
            "name" : "Index_Tip_R",
            "rotation" : [
                2.637971192598343e-07,
                1.1920928955078125e-07,
                3.725290298461914e-08,
                1
            ],
            "translation" : [
                -7.171183824539185e-08,
                -1.1823431123048067e-07,
                -0.022821400314569473
            ]
        },
        {
            "children" : [
                5
            ],
            "name" : "Index_Distal_R",
            "rotation" : [
                -0.07645785063505173,
                -0.0011659369338303804,
                3.129279502900317e-05,
                0.997072160243988
            ],
            "scale" : [
                1,
                1.0000001192092896,
                1
            ],
            "translation" : [
                1.2689270079135895e-07,
                -3.105378709733486e-08,
                -0.02827521041035652
            ]
        },
        {
            "children" : [
                6
            ],
            "name" : "Index_Intermediate_R",
            "rotation" : [
                -0.18476197123527527,
                0.005041464231908321,
                -8.595667168265209e-05,
                0.9827703833580017
            ],
            "scale" : [
                1,
                1.0000001192092896,
                0.9999998807907104
            ],
            "translation" : [
                -1.5401747077703476e-07,
                3.805325832217932e-08,
                -0.04328668862581253
            ]
        },
        {
            "children" : [
                7
            ],
            "name" : "Index_Proximal_R",
            "rotation" : [
                -0.24140386283397675,
                -0.052886877208948135,
                0.001623521326109767,
                0.9689812064170837
            ],
            "scale" : [
                0.9999998807907104,
                1,
                0.9999999403953552
            ],
            "translation" : [
                7.986091077327728e-08,
                -1.8830178305506706e-08,
                -0.0737975686788559
            ]
        },
        {
            "children" : [
                8
            ],
            "name" : "Index_Metacarpal_R",
            "rotation" : [
                0.09539882093667984,
                0.1039200946688652,
                0.08422335982322693,
                0.9864107370376587
            ],
            "scale" : [
                1,
                0.9999997615814209,
                1
            ],
            "translation" : [
                -0.02107323333621025,
                -0.0015572234988212585,
                -0.014786871150135994
            ]
        },
        {
            "name" : "Middle_Tip_R",
            "rotation" : [
                -2.5186454877257347e-07,
                4.0978193283081055e-08,
                5.774199607344599e-08,
                1
            ],
            "scale" : [
                1,
                1.0000001192092896,
                1
            ],
            "translation" : [
                1.1990778148174286e-08,
                9.569339454174042e-08,
                -0.02589237131178379
            ]
        },
        {
            "children" : [
                10
            ],
            "name" : "Middle_Distal_R",
            "rotation" : [
                -0.14127658307552338,
                0.004125439096242189,
                -0.00010749810462584719,
                0.989961564540863
            ],
            "scale" : [
                0.9999999403953552,
                1,
                0.9999999403953552
            ],
            "translation" : [
                1.6028934624046087e-08,
                4.6566128730773926e-09,
                -0.03326597809791565
            ]
        },
        {
            "children" : [
                11
            ],
            "name" : "Middle_Intermediate_R",
            "rotation" : [
                -0.1573953628540039,
                -0.003688163124024868,
                9.328635496785864e-05,
                0.9875288605690002
            ],
            "scale" : [
                0.9999999403953552,
                0.9999998807907104,
                1
            ],
            "translation" : [
                -2.153683453798294e-08,
                -1.0663643479347229e-07,
                -0.04310851916670799
            ]
        },
        {
            "children" : [
                12
            ],
            "name" : "Middle_Proximal_R",
            "rotation" : [
                -0.22916285693645477,
                -0.0001855257578426972,
                -2.631157069998835e-09,
                0.9733880758285522
            ],
            "translation" : [
                4.190951585769653e-09,
                7.334165275096893e-08,
                -0.07088559120893478
            ]
        },
        {
            "children" : [
                13
            ],
            "name" : "Middle_Metacarpal_R",
            "rotation" : [
                0.10122420638799667,
                0.01246198732405901,
                0.04078838601708412,
                0.9939490556716919
            ],
            "scale" : [
                0.9999999403953552,
                0.9999998807907104,
                0.9999999403953552
            ],
            "translation" : [
                -0.007119538262486458,
                0.002177312970161438,
                -0.01631874218583107
            ]
        },
        {
            "name" : "Ring_Tip_R",
            "rotation" : [
                2.5425106287002563e-07,
                -4.610046033803883e-08,
                -1.1827795987073841e-07,
                1
            ],
            "scale" : [
                1.0000001192092896,
                1,
                1.0000001192092896
            ],
            "translation" : [
                1.3365934137254953e-08,
                1.444714143872261e-07,
                -0.02243027836084366
            ]
        },
        {
            "children" : [
                15
            ],
            "name" : "Ring_Distal_R",
            "rotation" : [
                -0.13535535335540771,
                -0.004263000097125769,
                0.00019872814300470054,
                0.990787923336029
            ],
            "scale" : [
                0.9999998807907104,
                0.9999998211860657,
                0.9999999403953552
            ],
            "translation" : [
                -6.82193785905838e-08,
                -6.984919309616089e-09,
                -0.028488749638199806
            ]
        },
        {
            "children" : [
                16
            ],
            "name" : "Ring_Intermediate_R",
            "rotation" : [
                -0.1338297426700592,
                0.0025314183440059423,
                -7.308665226446465e-05,
                0.9910011291503906
            ],
            "translation" : [
                1.1408701539039612e-08,
                -5.122274160385132e-09,
                -0.040331218391656876
            ]
        },
        {
            "children" : [
                17
            ],
            "name" : "Ring_Proximal_R",
            "rotation" : [
                -0.2203693985939026,
                -0.04095689579844475,
                -0.0009013391099870205,
                0.9745558500289917
            ],
            "scale" : [
                1,
                1.0000001192092896,
                1
            ],
            "translation" : [
                -7.101334631443024e-09,
                -3.050081431865692e-08,
                -0.06597490608692169
            ]
        },
        {
            "children" : [
                18
            ],
            "name" : "Ring_Metacarpal_R",
            "rotation" : [
                0.07070005685091019,
                -0.04955555871129036,
                -0.0161043182015419,
                0.9961357712745667
            ],
            "scale" : [
                0.9999999403953552,
                0.9999999403953552,
                0.9999999403953552
            ],
            "translation" : [
                0.006545125041157007,
                0.0005134344100952148,
                -0.016347695142030716
            ]
        },
        {
            "name" : "Little_Tip_R",
            "rotation" : [
                -6.667687557637691e-08,
                -3.9406586438417435e-08,
                -2.0675359735378152e-07,
                1
            ],
            "scale" : [
                1.0000001192092896,
                1,
                0.9999999403953552
            ],
            "translation" : [
                -6.263144314289093e-08,
                -3.073364496231079e-08,
                -0.018017947673797607
            ]
        },
        {
            "children" : [
                20
            ],
            "name" : "Little_Distal_R",
            "rotation" : [
                -0.10858095437288284,
                0.012702565640211105,
                -0.0005382222589105368,
                0.994006335735321
            ],
            "scale" : [
                1,
                0.9999999403953552,
                1
            ],
            "translation" : [
                8.475035429000854e-08,
                1.0244548320770264e-07,
                -0.01797870174050331
            ]
        },
        {
            "children" : [
                21
            ],
            "name" : "Little_Intermediate_R",
            "rotation" : [
                -0.132522851228714,
                -0.01145606767386198,
                0.00038238285924308,
                0.9911137223243713
            ],
            "scale" : [
                1.0000001192092896,
                1.0000001192092896,
                1
            ],
            "translation" : [
                -8.707866072654724e-08,
                -3.026798367500305e-08,
                -0.029874274507164955
            ]
        },
        {
            "children" : [
                22
            ],
            "name" : "Little_Proximal_R",
            "rotation" : [
                -0.11030793190002441,
                0.028164092451334,
                0.003942281473428011,
                0.9934905767440796
            ],
            "scale" : [
                0.9999999403953552,
                0.9999999403953552,
                1
            ],
            "translation" : [
                3.632158041000366e-08,
                -3.259629011154175e-09,
                -0.06285567581653595
            ]
        },
        {
            "children" : [
                23
            ],
            "name" : "Little_Metacarpal_R",
            "rotation" : [
                0.019661109894514084,
                -0.14891940355300903,
                -0.11935025453567505,
                0.9814234375953674
            ],
            "scale" : [
                1,
                0.9999998807907104,
                1
            ],
            "translation" : [
                0.018981367349624634,
                -0.0024781525135040283,
                -0.015213580802083015
            ]
        },
        {
            "name" : "Palm_R",
            "rotation" : [
                0.10122410207986832,
                0.012462016195058823,
                0.040788374841213226,
                0.9939490556716919
            ],
            "scale" : [
                0.9999999403953552,
                1,
                0.9999998807907104
            ],
            "translation" : [
                -0.0082902442663908,
                0.009273245930671692,
                -0.05102420225739479
            ]
        },
        {
            "children" : [
                4,
                9,
                14,
                19,
                24,
                25
            ],
            "name" : "Wrist_R",
            "rotation" : [
                0.014522377401590347,
                0.014522377401590347,
                -0.7069576382637024,
                0.7069576382637024
            ],
            "scale" : [
                1,
                0.9999999403953552,
                1
            ],
            "translation" : [
                0.03798764571547508,
                -0.04289638623595238,
                0.1562119722366333
            ]
        },
        {
            "children" : [
                0,
                26
            ],
            "name" : "Armature"
        }
    ],
    "materials" : [
        {
            "doubleSided" : true,
            "extensions" : {
                "KHR_materials_specular" : {
                    "specularColorFactor" : [
                        2.371357614441398,
                        2.371357614441398,
                        2.371357614441398
                    ]
                },
                "KHR_materials_ior" : {
                    "ior" : 1.4500000476837158
                }
            },
            "name" : "blinn1",
            "normalTexture" : {
                "index" : 0
            },
            "pbrMetallicRoughness" : {
                "baseColorTexture" : {
                    "index" : 1
                },
                "metallicFactor" : 0.5,
                "roughnessFactor" : 0.7487671971321106
            }
        }
    ],
    "meshes" : [
        {
            "name" : "Mesh",
            "primitives" : [
                {
                    "attributes" : {
                        "POSITION" : 0,
                        "TEXCOORD_0" : 1,
                        "NORMAL" : 2
                    },
                    "indices" : 3,
                    "material" : 0
                }
            ]
        }
    ],
    "textures" : [
        {
            "sampler" : 0,
            "source" : 0
        },
        {
            "sampler" : 0,
            "source" : 1
        }
    ],
    "images" : [
        {
            "mimeType" : "image/png",
            "name" : "file2",
            "uri" : "file2.png"
        },
        {
            "mimeType" : "image/jpeg",
            "name" : "file3",
            "uri" : "file3.jpg"
        }
    ],
    "accessors" : [
        {
            "bufferView" : 0,
            "componentType" : 5126,
            "count" : 3028,
            "max" : [
                0.06041587144136429,
                0.027276646345853806,
                0.18421471118927002
            ],
            "min" : [
                -0.01748143695294857,
                -0.09098094701766968,
                -0.019953783601522446
            ],
            "type" : "VEC3"
        },
        {
            "bufferView" : 1,
            "componentType" : 5126,
            "count" : 3028,
            "type" : "VEC2"
        },
        {
            "bufferView" : 2,
            "componentType" : 5126,
            "count" : 3028,
            "type" : "VEC3"
        },
        {
            "bufferView" : 3,
            "componentType" : 5123,
            "count" : 14697,
            "type" : "SCALAR"
        }
    ],
    "bufferViews" : [
        {
            "buffer" : 0,
            "byteLength" : 36336,
            "byteOffset" : 0,
            "target" : 34962
        },
        {
            "buffer" : 0,
            "byteLength" : 24224,
            "byteOffset" : 36336,
            "target" : 34962
        },
        {
            "buffer" : 0,
            "byteLength" : 36336,
            "byteOffset" : 60560,
            "target" : 34962
        },
        {
            "buffer" : 0,
            "byteLength" : 29394,
            "byteOffset" : 96896,
            "target" : 34963
        }
    ],
    "samplers" : [
        {
            "magFilter" : 9729,
            "minFilter" : 9987
        }
    ],
    "buffers" : [
        {
            "byteLength" : 126292,
            "uri" : "openxr_glove_right.bin"
        }
    ]
}
